<svg id="Capa_1" data-name="Capa 1" xmlns="http://www.w3.org/2000/svg" viewBox="0 0 780.94 144.3"><defs><style>.cls-1{fill:#64963a;}</style></defs><path class="cls-1" d="M55.3,77.25l2.43-2.47A24.63,24.63,0,0,1,55.3,77.25Z"/><path class="cls-1" d="M62.36,84.57l-.15.15h0Z"/><path class="cls-1" d="M62.42,84.51a36.59,36.59,0,0,0,2.69-2.74Z"/><path class="cls-1" d="M100.83,60l-8.2,8.37a40.23,40.23,0,1,1-22.19-21.1l8.28-8.45A51.28,51.28,0,1,0,100.83,60Z"/><polygon class="cls-1" points="152.16 24.23 139.83 36.8 124.09 52.79 109.86 52.79 125.61 36.8 137.93 24.23 152.16 24.23"/><polygon class="cls-1" points="167.8 8.27 159.97 16.25 145.75 16.25 153.57 8.27 167.8 8.27"/><polygon class="cls-1" points="217.02 84.72 202.78 84.72 162.14 43.29 155.03 36.04 162.14 28.78 173.71 16.98 174.37 16.32 188.6 16.32 214.42 16.31 214.42 24.3 180.77 24.3 169.26 36.04 217.02 84.72"/><path class="cls-1" d="M129.33,16.31l-7.84,8L65.11,81.77l-2.69,2.74s-.05,0-.06.06l-.17.15a35.32,35.32,0,0,1-23.65,9.06V83.62A25.16,25.16,0,0,0,55.3,77.25a24.63,24.63,0,0,0,2.43-2.47L74,58.22l33.28-33.93h-28v-8h50.09Z"/><path class="cls-1" d="M158.5,84.72A51.29,51.29,0,1,0,187,38.77l8.28,8.45a40.19,40.19,0,1,1-22.19,21.1L164.88,60A50.9,50.9,0,0,0,158.5,84.72Z"/><path class="cls-1" d="M297.73,110.66a18.49,18.49,0,0,1-7.9-7.16L298,95.7A12.84,12.84,0,0,0,310.08,103a11.05,11.05,0,0,0,7.85-2.74q2.93-2.74,4.13-8.59l6.87-34.28H305.71l2.05-10.12h35L334,91q-2.42,12-8.26,17.09t-15.89,5.1A27.34,27.34,0,0,1,297.73,110.66Z"/><path class="cls-1" d="M357.87,107.22q-6.74-5.94-6.74-16.35a38.07,38.07,0,0,1,.74-7l7.34-36.69h12.08L364,83.72a36.34,36.34,0,0,0-.65,5.76q0,6.51,3.71,9.8t10.68,3.3q7.81,0,12.5-4.56t6.73-14.39l7.25-36.41h11.88l-7.43,37.24q-2.88,14.31-11,21.51t-21.17,7.19Q364.6,113.16,357.87,107.22Z"/><path class="cls-1" d="M490.73,47.22l-13,65h-9.93L441.13,66.72,432,112.23h-12l13-65H443l26.75,45.51,9-45.51Z"/><path class="cls-1" d="M531.78,77.5l23.13,34.73H541.44L523,84.84,510.6,95.61l-3.34,16.62h-12l13-65h12L513.67,80.1l37.8-32.88H566.7L532,77.41Z"/><path class="cls-1" d="M576,47.22h12.08l-13,65H563Z"/><path class="cls-1" d="M648.54,83.4a12.82,12.82,0,0,1,3,8.77q0,9.66-7.24,14.86t-20.16,5.2H594.86l13-65h26.93q9.19,0,14.36,3.48a11.42,11.42,0,0,1,5.15,10.08,17.24,17.24,0,0,1-3.9,11.56A20.69,20.69,0,0,1,640,78.8,15.23,15.23,0,0,1,648.54,83.4ZM641,104.06q5.76-4.08,5.76-11.7,0-5.85-4.09-8.45t-12.35-2.6H605.82l-5.39,26.84h24.15Q635.26,108.15,641,104.06ZM606.56,77.22h22.2q9.29,0,15-4t5.67-11.66a8.5,8.5,0,0,0-4-7.66q-4-2.55-11.42-2.55h-22.2Z"/><path class="cls-1" d="M677.71,47.22h4.73l-13,65H664.7Z"/><path class="cls-1" d="M705.52,109.36A23.55,23.55,0,0,1,695.3,100a27.54,27.54,0,0,1-3.48-14,40.84,40.84,0,0,1,4.83-19.6,36.34,36.34,0,0,1,13.75-14.3,40,40,0,0,1,20.8-5.3,36.34,36.34,0,0,1,13.42,2.33,20.56,20.56,0,0,1,9.15,6.59l-3.34,3.07q-6.51-7.62-19.6-7.62a34.26,34.26,0,0,0-18,4.69,32.1,32.1,0,0,0-12,12.59,36.16,36.16,0,0,0-4.23,17.36q0,10.41,6.59,16.49t19,6.08q13.38,0,21.46-7.8l2.87,3.25a28.53,28.53,0,0,1-10.72,6.6,41,41,0,0,1-14,2.32A36.24,36.24,0,0,1,705.52,109.36Z"/><path class="cls-1" d="M771.61,47.22h4.73l-13,65H758.6Z"/></svg>